<?xml version="1.0" encoding="UTF-8" standalone="no"?>
<!-- Created with Inkscape (http://www.inkscape.org/) -->

<svg
   width="231.28506mm"
   height="65.858955mm"
   viewBox="0 0 231.28506 65.858955"
   version="1.1"
   id="svg1"
   xml:space="preserve"
   inkscape:version="1.4 (e7c3feb100, 2024-10-09)"
   sodipodi:docname="logo.svg"
   xmlns:inkscape="http://www.inkscape.org/namespaces/inkscape"
   xmlns:sodipodi="http://sodipodi.sourceforge.net/DTD/sodipodi-0.dtd"
   xmlns="http://www.w3.org/2000/svg"
   xmlns:svg="http://www.w3.org/2000/svg"><sodipodi:namedview
     id="namedview1"
     pagecolor="#ffffff"
     bordercolor="#111111"
     borderopacity="1"
     inkscape:showpageshadow="0"
     inkscape:pageopacity="0"
     inkscape:pagecheckerboard="1"
     inkscape:deskcolor="#d1d1d1"
     inkscape:document-units="mm"
     inkscape:zoom="1.4142136"
     inkscape:cx="443.35595"
     inkscape:cy="203.64675"
     inkscape:window-width="2259"
     inkscape:window-height="1199"
     inkscape:window-x="0"
     inkscape:window-y="0"
     inkscape:window-maximized="1"
     inkscape:current-layer="layer1" /><defs
     id="defs1"><inkscape:path-effect
       effect="fillet_chamfer"
       id="path-effect129"
       is_visible="true"
       lpeversion="1"
       nodesatellites_param="F,0,0,1,0,0,0,1 @ F,0,0,1,0,1.057051,0,1 @ F,0,0,1,0,1.0839449,0,1 @ F,0,0,1,0,0,0,1"
       radius="0"
       unit="px"
       method="auto"
       mode="F"
       chamfer_steps="1"
       flexible="false"
       use_knot_distance="true"
       apply_no_radius="true"
       apply_with_radius="true"
       only_selected="false"
       hide_knots="false" /><inkscape:path-effect
       effect="fillet_chamfer"
       id="path-effect127"
       is_visible="true"
       lpeversion="1"
       nodesatellites_param="F,0,0,1,0,0,0,1 @ F,0,0,1,0,1.057051,0,1 @ F,0,0,1,0,1.0839449,0,1 @ F,0,0,1,0,0,0,1"
       radius="0"
       unit="px"
       method="auto"
       mode="F"
       chamfer_steps="1"
       flexible="false"
       use_knot_distance="true"
       apply_no_radius="true"
       apply_with_radius="true"
       only_selected="false"
       hide_knots="false" /><inkscape:path-effect
       effect="fillet_chamfer"
       id="path-effect126"
       is_visible="true"
       lpeversion="1"
       nodesatellites_param="F,0,0,1,0,1.0583333,0,1 @ F,0,0,1,0,1.0583333,0,1 @ F,0,0,1,0,1.0583333,0,1 @ F,0,0,1,0,1.0583333,0,1 @ F,0,0,1,0,1.0583333,0,1 @ F,0,0,1,0,1.0583333,0,1 @ F,0,0,1,0,1.0583333,0,1 @ F,0,0,1,0,1.0583333,0,1 @ F,0,1,1,0,0,0,1"
       radius="0"
       unit="px"
       method="auto"
       mode="F"
       chamfer_steps="1"
       flexible="false"
       use_knot_distance="true"
       apply_no_radius="true"
       apply_with_radius="true"
       only_selected="true"
       hide_knots="false" /><inkscape:path-effect
       effect="fillet_chamfer"
       id="path-effect125"
       is_visible="true"
       lpeversion="1"
       nodesatellites_param="F,0,0,1,0,1.0583333,0,1 @ F,0,0,1,0,1.0583333,0,1 @ F,0,0,1,0,1.0583333,0,1 @ F,0,0,1,0,1.0583333,0,1 @ F,0,0,1,0,1.0583333,0,1 @ F,0,0,1,0,1.0583333,0,1"
       radius="4"
       unit="px"
       method="auto"
       mode="F"
       chamfer_steps="1"
       flexible="false"
       use_knot_distance="true"
       apply_no_radius="true"
       apply_with_radius="true"
       only_selected="false"
       hide_knots="false" /><inkscape:path-effect
       effect="fillet_chamfer"
       id="path-effect123"
       is_visible="true"
       lpeversion="1"
       nodesatellites_param="F,0,1,1,0,1.0583333,0,1 @ F,0,1,1,0,1.0583333,0,1 @ F,0,1,1,0,1.0583333,0,1 @ F,0,0,1,0,0,0,1 @ F,0,1,1,0,1.0583333,0,1 @ F,0,1,1,0,1.0583333,0,1 @ F,0,0,1,0,0,0,1 @ F,0,1,1,0,1.0583333,0,1"
       radius="4"
       unit="px"
       method="auto"
       mode="F"
       chamfer_steps="1"
       flexible="false"
       use_knot_distance="true"
       apply_no_radius="true"
       apply_with_radius="true"
       only_selected="true"
       hide_knots="false" /><inkscape:path-effect
       effect="fillet_chamfer"
       id="path-effect122"
       is_visible="true"
       lpeversion="1"
       nodesatellites_param="F,0,0,1,0,0.89553347,0,1 @ F,0,0,1,0,0.92753153,0,1 @ F,0,0,1,0,0,0,1 @ F,0,0,1,0,0,0,1 @ F,0,0,1,0,0,0,1 @ F,0,0,1,0,0,0,1 @ F,0,0,1,0,0,0,1 @ F,0,0,1,0,0,0,1 @ F,0,0,1,0,0,0,1 @ F,0,0,1,0,0,0,1 @ F,0,0,1,0,0,0,1 @ F,0,0,1,0,0,0,1 | F,0,0,1,0,0,0,1 @ F,0,0,1,0,0,0,1 @ F,0,0,1,0,0,0,1"
       radius="0"
       unit="px"
       method="auto"
       mode="F"
       chamfer_steps="1"
       flexible="false"
       use_knot_distance="true"
       apply_no_radius="true"
       apply_with_radius="true"
       only_selected="false"
       hide_knots="false" /><inkscape:path-effect
       effect="fillet_chamfer"
       id="path-effect121"
       is_visible="true"
       lpeversion="1"
       nodesatellites_param="F,0,0,1,0,0,0,1 @ F,0,0,1,0,1.6854344,0,1 @ F,0,0,1,0,0.9893913,0,1 @ F,0,0,1,0,0,0,1 @ F,0,0,1,0,0,0,1 @ F,0,0,1,0,1.0050007,0,1 @ F,0,0,1,0,1.622811,0,1 @ F,0,0,1,0,0,0,1"
       radius="0"
       unit="px"
       method="auto"
       mode="F"
       chamfer_steps="1"
       flexible="false"
       use_knot_distance="true"
       apply_no_radius="true"
       apply_with_radius="true"
       only_selected="false"
       hide_knots="false" /><inkscape:path-effect
       effect="fillet_chamfer"
       id="path-effect120"
       is_visible="true"
       lpeversion="1"
       nodesatellites_param="F,0,0,1,0,0,0,1 @ F,0,0,1,0,1.448594,0,1 @ F,0,0,1,0,1.4171745,0,1 @ F,0,0,1,0,0,0,1"
       radius="0"
       unit="px"
       method="auto"
       mode="F"
       chamfer_steps="1"
       flexible="false"
       use_knot_distance="true"
       apply_no_radius="true"
       apply_with_radius="true"
       only_selected="false"
       hide_knots="false" /><inkscape:path-effect
       effect="fillet_chamfer"
       id="path-effect119"
       is_visible="true"
       lpeversion="1"
       nodesatellites_param="F,0,0,1,0,1.3229166,0,1 @ F,0,1,1,0,0,0,1 @ F,0,1,1,0,0,0,1 @ F,0,1,1,0,0,0,1 @ F,0,1,1,0,0,0,1 @ F,0,1,1,0,0,0,1 @ F,0,1,1,0,0,0,1 @ F,0,0,1,0,1.3229166,0,1"
       radius="0"
       unit="px"
       method="auto"
       mode="F"
       chamfer_steps="1"
       flexible="false"
       use_knot_distance="true"
       apply_no_radius="true"
       apply_with_radius="true"
       only_selected="false"
       hide_knots="false" /></defs><g
     inkscape:label="Text"
     inkscape:groupmode="layer"
     id="layer1"
     transform="translate(16.47262,-85.35118)"><path
       id="rect115"
       style="opacity:1;fill:#00735c;fill-opacity:1;stroke-width:0.271656"
       d="m 99.811995,86.5 v 34 h 6.717125 V 101.87351 L 113.79539,120.5 h 5.53765 l 7.15432,-18.76232 V 120.5 h 7.08429 v -34 h -8.83519 L 116.7157,108.8782 108.31292,86.5 Z"
       inkscape:label="M" /><path
       id="path113"
       style="fill:#00735c;fill-opacity:1;stroke-width:0.261322"
       d="m 76.851996,86.5 c -4.031938,0 -8.104432,1.5619 -10.780572,4.547113 C 63.303283,94.134951 62.000001,98.72649 62,103.50026 c 0,4.5268 1.130037,8.96363 3.650347,12.01011 2.706961,3.27209 6.95396,4.98963 11.201649,4.98963 4.027188,0 8.095581,-1.51096 10.770875,-4.48995 2.773688,-3.08856 4.219439,-7.73061 4.219439,-12.50979 -10e-7,-4.002126 -1.023335,-8.235606 -3.045019,-11.1399 C 86.076169,88.451274 81.558064,86.500001 76.851996,86.5 Z m 0.02399,6.478449 c 2.029159,0 4.180145,0.776238 5.611797,2.333017 1.763156,1.917258 2.587194,4.933874 2.587195,8.119874 10e-7,2.67745 -0.691512,5.47889 -1.990031,7.32827 -1.50128,2.13816 -3.780908,3.12464 -6.208961,3.12464 -2.019648,0 -4.064483,-0.7352 -5.493387,-2.27891 -1.77479,-1.9174 -2.705606,-4.97587 -2.705605,-8.174 1e-6,-3.38747 1.035101,-6.594618 2.99449,-8.504711 1.379832,-1.345119 3.33337,-1.94818 5.204502,-1.94818 z"
       inkscape:label="O" /><path
       id="path113-1"
       style="fill:#00735c;fill-opacity:1;stroke-width:0.261322"
       inkscape:label="C"
       d="m 170.86399,86.5 c -4.03194,0 -8.10408,1.562313 -10.78022,4.547526 -2.76814,3.087838 -4.07159,7.679217 -4.07159,12.452994 0,4.5268 1.13012,8.96364 3.65043,12.01012 2.70696,3.27209 6.95369,4.98935 11.20138,4.98935 4.02718,0 8.09563,-1.51065 10.77092,-4.48964 1.72472,-1.92052 2.93546,-4.44202 3.60495,-7.22334 h -7.11895 c -0.2836,0.72551 -0.62056,1.39884 -1.02371,1.97301 -1.50128,2.13816 -3.78087,3.12436 -6.20892,3.12436 -2.01965,0 -4.06482,-0.73522 -5.49372,-2.27893 -1.77479,-1.9174 -2.70527,-4.97605 -2.70527,-8.17418 1e-5,-3.38747 1.03476,-6.594301 2.99414,-8.504394 1.37984,-1.345119 3.33371,-1.948202 5.20485,-1.948202 2.02916,0 4.17989,0.776412 5.61154,2.333191 0.69342,0.754028 1.2396,1.679609 1.64951,2.717147 h 7.06624 c -0.5049,-2.114865 -1.30651,-4.088813 -2.40606,-5.668388 C 180.08839,88.451538 175.57005,86.500001 170.86399,86.5 Z" /><path
       id="rect116"
       style="opacity:1;fill:#00735c;fill-opacity:1;stroke-width:0.267758"
       inkscape:label="I"
       d="m 141.45972,86.5 h 7.23127 v 34 h -7.23127 z" /><path
       style="opacity:1;fill:#00735c;fill-opacity:1;stroke-width:0.262909"
       d="m 207.77959,96.836049 h 6.70419 c 0,0 -0.25552,-3.537851 -2.53836,-6.324162 -1.9334,-2.359795 -5.53777,-4.042558 -9.42402,-4.011463 -8.47492,0.06781 -11.75614,4.560069 -11.8227,10.310977 -0.0666,5.750899 5.2773,8.213249 9.39204,9.337989 4.11474,1.12474 7.85798,1.54403 7.75458,4.48939 -0.1034,2.94537 -3.52213,3.36419 -5.38964,3.3521 -1.86751,-0.0121 -3.13396,-0.14179 -4.28114,-1.11207 -1.56508,-1.32371 -2.02869,-3.6203 -2.02869,-3.6203 l -6.70419,-0.0657 c 0,0 0.37675,4.98104 3.74027,8.00998 3.01091,2.71143 7.0882,3.33862 9.93102,3.29512 2.0217,-0.0309 4.96423,-0.74619 7.31502,-2.31265 2.52591,-1.68317 4.39172,-4.30631 4.38445,-7.41499 -0.014,-6.00184 -3.96252,-8.41162 -9.13611,-9.89197 -5.17359,-1.480343 -8.17886,-2.019889 -8.18305,-4.674847 -0.004,-2.654959 2.91219,-3.294854 4.98167,-3.218063 0.93728,0.03478 2.57845,0.293452 3.58512,1.150889 1.21599,1.035734 1.71954,2.69975 1.71954,2.69975 z"
       id="path118"
       sodipodi:nodetypes="ccsszzzzsccsssszzssc"
       inkscape:label="S" /><path
       id="path119"
       style="opacity:1;fill:#00b894;fill-opacity:1;stroke-width:0.264867"
       d="m 65.696645,133.00001 c -0.731397,-0.003 -1.324489,0.58672 -1.324856,1.31814 l -0.0078,14.84965 c -3.66e-4,0.73141 0.592397,1.325 1.32382,1.32589 2.061706,0.002 5.899332,0.007 6.828617,0.006 1.28708,-0.002 2.837794,-0.83897 3.695214,-1.54213 0.857418,-0.70317 1.840092,-2.00068 1.825621,-3.93939 -0.01447,-1.93869 -0.0059,-4.81214 0.0083,-6.76239 0.01414,-1.95024 -1.019686,-2.88801 -1.902701,-3.72937 -0.883013,-0.84136 -2.666989,-1.51843 -4.607765,-1.51263 -1.320073,0.004 -4.158029,-0.006 -5.838467,-0.0134 z m 3.81161,4.39463 h 2.14222 a 1.4501503,1.4501503 0 0 1 1.450047,1.45004 v 5.83898 a 1.418697,1.418697 0 0 1 -1.418491,1.4185 h -2.173776 z"
       inkscape:label="D" /><path
       id="path120"
       style="opacity:1;fill:#00b894;fill-opacity:1;stroke-width:0.26339"
       d="m 95.604286,133 -3.595983,0.007 a 1.2656515,1.2656515 0 0 0 -1.203612,0.88149 L 86.023942,148.896 c -0.251684,0.79084 0.338362,1.59809 1.168281,1.59835 h 2.737309 c 0.58463,-1e-4 1.100288,-0.38288 1.269627,-0.94244 l 0.471737,-1.56029 4.225569,0.0119 0.472251,1.52375 c 0.17617,0.56878 0.700936,0.95757 1.296376,0.96045 l 2.694098,0.0123 c 0.79952,0.004 1.37192,-0.77094 1.1333,-1.53404 l -4.73046,-15.11642 a 1.2107741,1.2107741 0 0 0 -1.157744,-0.84916 z m -1.861247,7.47156 1.04739,3.36904 h -2.129761 z"
       inkscape:label="A" /><path
       style="opacity:1;fill:#00b894;fill-opacity:1;stroke-width:0.264583"
       d="m 110.24795,133.23052 h 11.63436 a 1.0583333,1.0583333 45 0 1 1.05833,1.05833 l 0,2.42024 a 1.0583333,1.0583333 135 0 1 -1.05833,1.05833 h -3.40841 l 0,11.9911 a 1.0583333,1.0583333 135 0 1 -1.05833,1.05833 h -2.84119 a 1.0583333,1.0583333 45 0 1 -1.05833,-1.05833 v -11.92094 h -3.2681 a 1.0583333,1.0583333 45 0 1 -1.05833,-1.05833 v -2.4904 a 1.0583333,1.0583333 135 0 1 1.05833,-1.05833 z"
       id="path122"
       inkscape:path-effect="#path-effect123"
       inkscape:original-d="m 109.18962,133.23052 h 13.75102 v 4.5369 h -4.46674 v 13.04943 h -4.95785 v -12.97927 h -4.32643 z"
       transform="matrix(0.99509107,0,0,0.99509107,0.53600381,0.42349882)"
       inkscape:label="T" /><path
       id="path123"
       style="opacity:1;fill:#00b894;fill-opacity:1;stroke-width:0.26339"
       d="m 140.19461,133 -3.59599,0.007 a 1.2656515,1.2656515 0 0 0 -1.20361,0.88149 l -4.78075,15.00751 c -0.25168,0.79084 0.33836,1.59809 1.16828,1.59835 h 2.73731 c 0.58463,-1e-4 1.10029,-0.38288 1.26963,-0.94244 l 0.47174,-1.56029 4.22556,0.0119 0.47226,1.52375 c 0.17617,0.56878 0.70093,0.95757 1.29637,0.96045 l 2.6941,0.0123 c 0.79952,0.004 1.37192,-0.77094 1.1333,-1.53404 l -4.73046,-15.11642 a 1.2107741,1.2107741 0 0 0 -1.15774,-0.84916 z m -1.86125,7.47156 1.04739,3.36904 h -2.12976 z"
       inkscape:label="A" /><path
       id="path124"
       style="opacity:1;fill:#00b894;fill-opacity:1;stroke-width:0.26339"
       d="m 184.44617,133 -3.59599,0.007 a 1.2656515,1.2656515 0 0 0 -1.20361,0.88149 l -4.78075,15.00751 c -0.25168,0.79084 0.33836,1.59809 1.16828,1.59835 h 2.73731 c 0.58463,-1e-4 1.10029,-0.38288 1.26963,-0.94244 l 0.47174,-1.56029 4.22556,0.0119 0.47226,1.52375 c 0.17617,0.56878 0.70093,0.95757 1.29637,0.96045 l 2.6941,0.0123 c 0.79952,0.004 1.37192,-0.77094 1.1333,-1.53404 l -4.73046,-15.11642 a 1.2107741,1.2107741 0 0 0 -1.15774,-0.84916 z m -1.86125,7.47156 1.04739,3.36904 h -2.12976 z"
       inkscape:label="A" /><path
       style="opacity:1;fill:#00b894;fill-opacity:1;stroke-width:0.264583"
       d="m 154.48359,134.30911 0,15.31277 a 1.0583333,1.0583333 45 0 0 1.05833,1.05833 h 10.64949 a 1.0583333,1.0583333 135 0 0 1.05833,-1.05833 l 0,-2.34819 a 1.0583333,1.0583333 45 0 0 -1.05833,-1.05833 h -5.55626 a 1.0596802,1.0596802 44.963563 0 1 -1.05968,-1.05833 l -0.0138,-10.85619 a 1.0579554,1.0579554 44.916896 0 0 -1.05968,-1.05661 l -2.96007,0.005 a 1.0600587,1.0600587 134.95333 0 0 -1.05833,1.06005 z"
       id="path125"
       sodipodi:nodetypes="ccccccc"
       inkscape:path-effect="#path-effect125"
       inkscape:original-d="m 154.48359,133.25078 v 17.42943 h 12.76615 v -4.46485 h -7.67292 l -0.0165,-12.97285 z"
       transform="matrix(1.0036716,0,0,1.0036716,-0.56720765,-0.73345302)"
       inkscape:label="L" /><path
       id="path126"
       style="opacity:1;fill:#00b894;fill-opacity:1;stroke-width:0.264583"
       d="m 199.74646,133.23269 c -0.58434,8e-5 -1.05805,0.47406 -1.05833,1.05834 v 15.35048 c 0,0.5845 0.47383,1.05834 1.05833,1.05834 0,0 5.02422,-0.0464 6.9572,-0.0351 1.09651,0.006 2.72456,-0.49669 3.853,-1.61386 0.86082,-0.85224 1.38945,-2.1239 1.4149,-3.43131 0.0588,-3.02127 -1.46813,-3.8406 -1.46813,-3.8406 0,0 1.25015,-0.8654 1.27124,-3.71812 0.0101,-1.36365 -0.52864,-2.57234 -1.4397,-3.40444 -0.99486,-0.90863 -2.4136,-1.37923 -3.54191,-1.39268 -2.16159,-0.0258 -7.0466,-0.031 -7.0466,-0.031 z m 3.84111,4.41782 h 2.41588 a 1.057051,1.057051 0 0 1 1.05678,1.05679 v 0.0109 a 1.0839449,1.0839449 0 0 1 -1.08366,1.08365 h -2.389 z m 0.0465,6.30246 h 2.41588 a 1.057051,1.1489685 0 0 1 1.0573,1.14877 v 0.0119 a 1.0839449,1.178201 0 0 1 -1.08418,1.17823 h -2.389 z"
       inkscape:label="B" /></g><g
     inkscape:groupmode="layer"
     id="layer4"
     inkscape:label="upper logo"
     transform="translate(16.47262,-85.35118)"><path
       id="path141"
       style="fill:#00b894"
       d="m 34.023246,94.724451 -0.552421,0.117305 0.480591,2.275313 -1.711007,1.595769 1.124996,4.675682 1.8495,0.72657 1.227832,4.80849 c 0.182973,-0.048 0.366047,-0.0907 0.545703,-0.14727 l -1.297079,-5.0829 -1.845882,-0.72295 -0.978235,-4.070037 1.703256,-1.58595 z m 8.416024,1.656229 -0.548804,0.127124 0.738457,3.183785 -1.63866,1.943031 0.834574,3.31556 c 0.139948,-0.25377 0.268765,-0.51366 0.387057,-0.77928 l -0.602547,-2.39365 1.635042,-1.937349 z m -25.466663,1.23455 -0.548803,0.136943 0.519348,2.082043 -1.775086,1.636594 1.152385,4.70876 1.890324,0.65267 0.103353,0.46302 c 0.203347,0.0477 0.407225,0.093 0.610298,0.14159 l -0.230993,-1.03456 -1.898593,-0.65629 -0.999938,-4.08606 1.779219,-1.63659 z m 8.371066,1.451075 -0.548804,0.134875 0.784965,3.16001 -1.683101,2.03347 1.07797,4.38836 c 0.201759,0.0359 0.403888,0.0627 0.605648,0.0961 l -1.066602,-4.34185 1.683618,-2.03554 z m 4.304646,1.264005 -0.55087,0.13281 1.558561,6.49366 2.457214,0.74827 c 0.0266,0.10428 0.231925,0.91002 0.426331,1.6738 0.03109,-0.002 0.06191,-0.002 0.09302,-0.004 0.15709,-0.01 0.317569,-0.0384 0.47594,-0.0527 -0.236339,-0.93015 -0.485241,-1.91048 -0.485241,-1.91048 l -0.04134,-0.154 -2.451014,-0.74621 z m 8.955009,1.40198 -0.548803,0.13281 1.390096,5.73453 c 0.0313,-0.022 0.06572,-0.0401 0.09663,-0.0625 0.139693,-0.0932 0.265615,-0.2004 0.395841,-0.30335 z m -26.030969,1.43196 -0.546736,0.14262 0.773079,2.99362 c 0.200337,0.0209 0.400543,0.0426 0.60048,0.0677 z m 8.935372,1.25367 -0.546737,0.14056 c 0,0 0.403183,1.56821 0.812354,3.16983 0.03834,0.15005 0.06834,0.2697 0.106453,0.41909 0.145414,0.0343 0.291862,0.0717 0.437183,0.10542 0.06072,0.0135 0.121196,0.0229 0.181901,0.0362 -0.06311,-0.24681 -0.114685,-0.45029 -0.1788,-0.70125 -0.409341,-1.60228 -0.812354,-3.16983 -0.812354,-3.16983 z" /><circle
       style="opacity:1;fill:none;fill-opacity:1;stroke:#00b894;stroke-width:0.516405;stroke-dasharray:none;stroke-opacity:1"
       id="path149"
       cx="11.908542"
       cy="101.70924"
       r="1.6095053" /><circle
       style="fill:none;fill-opacity:1;stroke:#00b894;stroke-width:0.516405;stroke-dasharray:none;stroke-opacity:1"
       id="path149-5"
       cx="16.262974"
       cy="96.083214"
       r="1.6095053" /><circle
       style="fill:none;fill-opacity:1;stroke:#00b894;stroke-width:0.516405;stroke-dasharray:none;stroke-opacity:1"
       id="path149-7"
       cx="20.889738"
       cy="103.01971"
       r="1.6095053" /><circle
       style="fill:none;fill-opacity:1;stroke:#00b894;stroke-width:0.516405;stroke-dasharray:none;stroke-opacity:1"
       id="path149-0"
       cx="24.624628"
       cy="97.593216"
       r="1.6095053" /><circle
       style="fill:none;fill-opacity:1;stroke:#00b894;stroke-width:0.516405;stroke-dasharray:none;stroke-opacity:1"
       id="path149-8"
       cx="28.952883"
       cy="98.933105"
       r="1.6095053" /><circle
       style="fill:none;fill-opacity:1;stroke:#00b894;stroke-width:0.516405;stroke-dasharray:none;stroke-opacity:1"
       id="path149-1"
       cx="33.295811"
       cy="93.364471"
       r="1.6095053" /><circle
       style="fill:none;fill-opacity:1;stroke:#00b894;stroke-width:0.516405;stroke-dasharray:none;stroke-opacity:1"
       id="path149-06"
       cx="37.926704"
       cy="100.28767"
       r="1.6095053" /><circle
       style="fill:none;fill-opacity:1;stroke:#00b894;stroke-width:0.516405;stroke-dasharray:none;stroke-opacity:1"
       id="path149-6"
       cx="41.743675"
       cy="94.928123"
       r="1.6095053" /></g><g
     inkscape:groupmode="layer"
     id="layer6"
     inkscape:label="lower logo right"
     style="display:inline"
     transform="translate(16.47262,-85.35118)"><path
       id="path153"
       style="fill:#00735c;fill-opacity:1"
       d="m 33.90439,119.09816 c -0.420927,0.0466 -0.842453,0.0887 -1.265555,0.11937 v 5.23586 l -10.550778,6.15207 0.03514,12.82816 11.347628,6.7598 11.084078,-6.6642 -0.07028,-12.99404 -10.580233,-6.07404 z m -0.63872,6.45438 9.959082,5.71697 0.06253,11.5471 -9.818522,5.90196 -10.084139,-6.00583 -0.02894,-11.3807 z" /><circle
       style="opacity:1;fill:#00b894;fill-opacity:1;stroke:none;stroke-width:1.40471;stroke-dasharray:none;stroke-opacity:1"
       id="path155"
       cx="22.836998"
       cy="131.25488"
       r="2.1637025" /><circle
       style="fill:#00b894;fill-opacity:1;stroke:none;stroke-width:1.40471;stroke-dasharray:none;stroke-opacity:1"
       id="path155-1"
       cx="22.880074"
       cy="143.31688"
       r="2.1637025" /><circle
       style="fill:#00b894;fill-opacity:1;stroke:none;stroke-width:1.40471;stroke-dasharray:none;stroke-opacity:1"
       id="path155-5"
       cx="33.513405"
       cy="149.04643"
       r="2.1637025" /><circle
       style="fill:#00b894;fill-opacity:1;stroke:none;stroke-width:1.40471;stroke-dasharray:none;stroke-opacity:1"
       id="path155-0"
       cx="43.666149"
       cy="131.05154"
       r="2.1637025" /></g><g
     inkscape:groupmode="layer"
     id="layer3"
     inkscape:label="mid logo"
     style="display:inline"
     transform="translate(16.47262,-85.35118)"><path
       style="opacity:1;fill:#00735c;fill-opacity:1;stroke-width:0.264583"
       d="m -12.815574,149.57739 c 0,0 -0.336149,-10.84671 0.403907,-15.93391 0.740057,-5.0872 2.8269092,-9.78426 4.834576,-12.17617 1.0445928,-1.24451 4.1880616,-4.45844 8.8781444,-5.62602 4.3240746,-1.07647 9.9768206,-0.20305 16.1917376,0.76172 12.955889,2.0112 21.164691,1.60866 27.127857,-3.32082 5.963166,-4.92948 4.859604,-13.21715 4.022405,-16.837984 -0.402668,-1.741513 -1.992799,-4.735306 -3.809626,-7.030574 -1.96059,-2.476889 -3.943206,-4.062452 -3.943206,-4.062452 0,0 4.719692,8.627801 3.917514,14.647711 -0.802178,6.019909 -3.439415,10.917299 -12.546287,11.049589 -9.106873,0.13229 -15.341272,-3.15881 -21.047476,-3.25234 -5.7062048,-0.0935 -12.9091188,0.74836 -17.6798798,3.64823 -2.2595721,1.37346 -4.4737802,3.66561 -6.0468402,6.23504 -1.74823,2.85557 -2.751225,5.99141 -3.132827,7.27163 -0.724969,2.43215 -0.993968,7.34803 -0.724683,10.50115 0.269285,3.15312 0.841899,6.7352 1.496709,9.07381 0.65481,2.33861 2.057975,5.05139 2.057975,5.05139 z"
       id="path154"
       sodipodi:nodetypes="czssszssczzzssszzc" /></g><g
     inkscape:groupmode="layer"
     id="layer5"
     inkscape:label="lower logo"
     transform="translate(16.47262,-85.35118)"><path
       style="display:inline;opacity:1;fill:#00b894;fill-opacity:1;stroke-width:0.264583"
       d="m -11.175545,137.7363 c -0.100305,1.95003 -0.114851,3.90196 -0.109554,5.85442 l 1.5327227,5.75572 1.5213542,-0.29766 z"
       id="path138" /><path
       style="display:inline;opacity:1;fill:#00b894;fill-opacity:1;stroke-width:0.264583"
       d="m -9.5255168,128.50585 c -0.3571005,1.03071 -0.6468422,2.08644 -0.8831502,3.15071 l 4.5811157,17.20102 1.5213542,-0.29766 z"
       id="path137" /><path
       style="display:inline;opacity:1;fill:#00b894;fill-opacity:1;stroke-width:0.264583"
       d="m -6.8285238,123.14597 c -0.4550602,0.61683 -0.8696227,1.26419 -1.2309326,1.94149 l 6.0425252,22.68853 1.52135421,-0.29765 z"
       id="path136" /><path
       style="display:inline;opacity:1;fill:#00b894;fill-opacity:1;stroke-width:0.264583"
       d="m -3.4633545,119.81698 c -0.5050928,0.36245 -0.9862027,0.75511 -1.4412557,1.17719 L 1.6536458,145.62005 3.175,145.3224 Z"
       id="path135" /><path
       style="display:inline;opacity:1;fill:#00b894;fill-opacity:1;stroke-width:0.264583"
       d="m 0.0578776,117.91115 c -0.35918555,0.13475 -0.71227247,0.28552 -1.0598836,0.44958 l -0.4904094,0.33797 6.8791667,25.82995 1.5213542,-0.29766 z"
       id="path134" /><path
       style="display:inline;opacity:1;fill:#00b894;fill-opacity:1;stroke-width:0.264583"
       d="m 10.645345,117.25744 4.641577,17.42736 1.521354,-0.29765 -4.403348,-16.91887 c -0.586341,-0.0761 -1.172837,-0.14775 -1.759583,-0.21084 z"
       id="path133" /><path
       style="display:inline;opacity:1;fill:#00b894;fill-opacity:1;stroke-width:0.264583"
       d="m 3.9677165,117.01973 c -0.5666453,0.0568 -1.1310575,0.13241 -1.6877523,0.24805 l 6.7670288,25.4093 1.521354,-0.29766 z"
       id="path132" /><path
       style="display:inline;opacity:1;fill:#00b894;fill-opacity:1;stroke-width:0.264583"
       d="m 6.3897909,116.9479 6.1593141,23.12727 1.521354,-0.29766 -5.9164347,-22.73194 c -0.3794692,-0.024 -0.7585666,-0.0574 -1.1384319,-0.0718 -0.2079764,-0.0155 -0.4171748,-0.0176 -0.6258015,-0.0258 z"
       id="path130" /><circle
       style="display:inline;opacity:1;fill:#00b894;fill-opacity:1;stroke-width:0.247936"
       id="path131"
       cx="2.8185129"
       cy="147.18082"
       r="1.9064556" /><circle
       style="display:inline;opacity:1;fill:#00b894;fill-opacity:1;stroke-width:0.226646"
       id="path131-1"
       cx="-1.0238562"
       cy="148.33658"
       r="1.742753" /><circle
       style="display:inline;opacity:1;fill:#00b894;fill-opacity:1;stroke-width:0.212451"
       id="path131-8"
       cx="-4.9809794"
       cy="149.25458"
       r="1.633604" /><circle
       style="display:inline;opacity:1;fill:#00b894;fill-opacity:1;stroke-width:0.200286"
       id="path131-8-6"
       cx="6.5644097"
       cy="145.54402"
       r="1.5400597" /><circle
       style="display:inline;opacity:1;fill:#00b894;fill-opacity:1;stroke-width:0.203327"
       id="path131-8-61"
       cx="9.9929781"
       cy="143.09259"
       r="1.5634458" /><circle
       style="display:inline;opacity:1;fill:#00b894;fill-opacity:1;stroke-width:0.196233"
       id="path131-3"
       cx="-8.9561338"
       cy="149.62741"
       r="1.5088922" /><circle
       style="display:inline;opacity:1;fill:#00b894;fill-opacity:1;stroke-width:0.171392"
       id="path131-8-9"
       cx="16.197382"
       cy="134.9444"
       r="1.317892" /><circle
       style="display:inline;opacity:1;fill:#00b894;fill-opacity:1;stroke-width:0.18812"
       id="path131-8-7"
       cx="13.361479"
       cy="140.09279"
       r="1.4465153" /></g></svg>
